<?xml version="1.0" encoding="UTF-8"?>
<svg xmlns="http://www.w3.org/2000/svg" xmlns:xlink="http://www.w3.org/1999/xlink" width="65px" height="65px" viewBox="0 0 65 65" version="1.1">
<g id="surface1">
<rect x="0" y="0" width="65" height="65" style="fill:rgb(100%,100%,100%);fill-opacity:1;stroke:none;"/>
<path style=" stroke:none;fill-rule:evenodd;fill:rgb(0%,0%,0%);fill-opacity:1;" d="M 35.230469 23.261719 L 36.273438 30.320312 L 34.40625 30.320312 L 34.304688 29.054688 L 33.65625 29.054688 L 33.554688 30.320312 L 31.675781 30.320312 L 32.59375 23.261719 Z M 34.261719 27.800781 C 34.160156 26.8125 34.070312 25.820312 33.992188 24.832031 C 33.804688 26.191406 33.6875 27.179688 33.648438 27.800781 Z M 40.640625 23.261719 L 40.640625 30.320312 L 38.898438 30.320312 L 38.898438 29.898438 C 38.75 30.0625 38.570312 30.195312 38.367188 30.289062 C 38.191406 30.378906 37.996094 30.425781 37.796875 30.425781 C 37.523438 30.425781 37.285156 30.351562 37.085938 30.214844 C 36.886719 30.066406 36.761719 29.898438 36.710938 29.707031 C 36.648438 29.527344 36.617188 29.214844 36.617188 28.78125 L 36.617188 26.085938 C 36.617188 25.632812 36.648438 25.324219 36.710938 25.136719 C 36.761719 24.945312 36.898438 24.789062 37.085938 24.640625 C 37.292969 24.503906 37.535156 24.429688 37.816406 24.429688 C 38.035156 24.429688 38.234375 24.460938 38.410156 24.546875 C 38.585938 24.621094 38.753906 24.734375 38.898438 24.902344 L 38.898438 23.261719 Z M 38.898438 25.988281 C 38.898438 25.777344 38.878906 25.632812 38.847656 25.558594 C 38.816406 25.496094 38.734375 25.453125 38.628906 25.453125 C 38.523438 25.453125 38.453125 25.496094 38.410156 25.558594 C 38.378906 25.609375 38.359375 25.769531 38.359375 25.988281 L 38.359375 28.824219 C 38.359375 29.066406 38.378906 29.214844 38.410156 29.296875 C 38.453125 29.359375 38.523438 29.402344 38.617188 29.402344 C 38.734375 29.402344 38.804688 29.351562 38.847656 29.277344 C 38.878906 29.191406 38.898438 28.992188 38.898438 28.664062 Z M 45.382812 23.261719 L 45.382812 30.320312 L 43.640625 30.320312 L 43.640625 29.898438 C 43.492188 30.0625 43.3125 30.195312 43.109375 30.289062 C 42.933594 30.378906 42.738281 30.425781 42.539062 30.425781 C 42.265625 30.425781 42.027344 30.351562 41.828125 30.214844 C 41.628906 30.066406 41.503906 29.898438 41.453125 29.707031 C 41.390625 29.527344 41.359375 29.214844 41.359375 28.78125 L 41.359375 26.085938 C 41.359375 25.632812 41.390625 25.324219 41.453125 25.136719 C 41.503906 24.945312 41.640625 24.789062 41.828125 24.640625 C 42.035156 24.503906 42.277344 24.429688 42.558594 24.429688 C 42.777344 24.429688 42.976562 24.460938 43.152344 24.546875 C 43.328125 24.621094 43.496094 24.734375 43.640625 24.902344 L 43.640625 23.261719 Z M 43.640625 25.988281 C 43.640625 25.777344 43.621094 25.632812 43.589844 25.558594 C 43.558594 25.496094 43.476562 25.453125 43.371094 25.453125 C 43.265625 25.453125 43.195312 25.496094 43.152344 25.558594 C 43.121094 25.609375 43.101562 25.769531 43.101562 25.988281 L 43.101562 28.824219 C 43.101562 29.066406 43.121094 29.214844 43.152344 29.296875 C 43.195312 29.359375 43.265625 29.402344 43.359375 29.402344 C 43.476562 29.402344 43.546875 29.351562 43.589844 29.277344 C 43.621094 29.191406 43.640625 28.992188 43.640625 28.664062 Z M 47.894531 24.535156 L 47.832031 25.292969 C 48.082031 24.746094 48.445312 24.460938 48.925781 24.429688 L 48.925781 26.464844 C 48.613281 26.464844 48.375 26.503906 48.226562 26.601562 C 48.070312 26.675781 47.988281 26.800781 47.945312 26.957031 C 47.914062 27.117188 47.894531 27.476562 47.894531 28.035156 L 47.894531 30.320312 L 46.152344 30.320312 L 46.152344 24.535156 Z M 53.417969 27.527344 L 51.15625 27.527344 L 51.15625 28.769531 C 51.15625 29.042969 51.179688 29.214844 51.207031 29.285156 C 51.25 29.359375 51.324219 29.402344 51.425781 29.402344 C 51.5625 29.402344 51.648438 29.351562 51.699219 29.246094 C 51.742188 29.148438 51.761719 28.949219 51.761719 28.664062 L 51.761719 27.898438 L 53.417969 27.898438 L 53.417969 28.328125 C 53.417969 28.6875 53.386719 28.960938 53.34375 29.160156 C 53.304688 29.351562 53.210938 29.550781 53.035156 29.773438 C 52.871094 29.988281 52.65625 30.160156 52.40625 30.265625 C 52.167969 30.371094 51.84375 30.425781 51.46875 30.425781 C 51.09375 30.425781 50.78125 30.371094 50.488281 30.265625 C 50.207031 30.160156 49.992188 30.003906 49.832031 29.824219 C 49.675781 29.636719 49.5625 29.425781 49.511719 29.203125 C 49.449219 28.980469 49.417969 28.65625 49.417969 28.222656 L 49.417969 26.539062 C 49.417969 26.019531 49.488281 25.621094 49.625 25.328125 C 49.75 25.042969 49.96875 24.820312 50.28125 24.664062 C 50.59375 24.503906 50.949219 24.429688 51.34375 24.429688 C 51.835938 24.429688 52.242188 24.515625 52.5625 24.703125 C 52.875 24.894531 53.097656 25.148438 53.21875 25.453125 C 53.355469 25.769531 53.417969 26.199219 53.417969 26.757812 Z M 51.679688 26.589844 L 51.679688 26.167969 C 51.679688 25.863281 51.65625 25.671875 51.636719 25.589844 C 51.59375 25.496094 51.53125 25.453125 51.429688 25.453125 C 51.304688 25.453125 51.230469 25.496094 51.199219 25.558594 C 51.179688 25.640625 51.15625 25.84375 51.15625 26.167969 L 51.15625 26.589844 Z M 57.691406 26.378906 L 56.160156 26.378906 L 56.160156 26.074219 C 56.160156 25.800781 56.140625 25.632812 56.109375 25.558594 C 56.078125 25.496094 56.003906 25.453125 55.878906 25.453125 C 55.792969 25.453125 55.710938 25.492188 55.660156 25.558594 C 55.617188 25.609375 55.585938 25.714844 55.585938 25.851562 C 55.585938 26.023438 55.597656 26.148438 55.628906 26.242188 C 55.648438 26.316406 55.722656 26.410156 55.847656 26.507812 C 55.972656 26.613281 56.210938 26.75 56.597656 26.949219 C 57.097656 27.191406 57.433594 27.421875 57.589844 27.65625 C 57.746094 27.875 57.828125 28.191406 57.828125 28.613281 C 57.828125 29.085938 57.765625 29.433594 57.652344 29.675781 C 57.527344 29.917969 57.316406 30.109375 57.035156 30.234375 C 56.753906 30.363281 56.410156 30.425781 56.015625 30.425781 C 55.578125 30.425781 55.191406 30.351562 54.878906 30.226562 C 54.566406 30.078125 54.347656 29.886719 54.230469 29.644531 C 54.117188 29.414062 54.054688 29.054688 54.054688 28.570312 L 54.054688 28.296875 L 55.597656 28.296875 L 55.597656 28.65625 C 55.597656 28.972656 55.617188 29.171875 55.660156 29.253906 C 55.691406 29.351562 55.777344 29.402344 55.890625 29.402344 C 56.015625 29.402344 56.097656 29.359375 56.148438 29.296875 C 56.191406 29.234375 56.210938 29.117188 56.210938 28.910156 C 56.210938 28.632812 56.183594 28.464844 56.121094 28.390625 C 56.058594 28.316406 55.722656 28.117188 55.117188 27.78125 C 54.597656 27.484375 54.296875 27.222656 54.179688 26.980469 C 54.066406 26.75 54.015625 26.464844 54.015625 26.136719 C 54.015625 25.675781 54.078125 25.335938 54.191406 25.117188 C 54.304688 24.894531 54.515625 24.726562 54.804688 24.609375 C 55.097656 24.496094 55.429688 24.429688 55.804688 24.429688 C 56.191406 24.429688 56.503906 24.472656 56.777344 24.566406 C 57.035156 24.671875 57.253906 24.800781 57.390625 24.96875 C 57.535156 25.125 57.609375 25.261719 57.652344 25.398438 C 57.671875 25.546875 57.691406 25.757812 57.691406 26.042969 Z M 61.996094 26.378906 L 60.464844 26.378906 L 60.464844 26.074219 C 60.464844 25.800781 60.445312 25.632812 60.421875 25.558594 C 60.382812 25.496094 60.320312 25.453125 60.195312 25.453125 C 60.109375 25.449219 60.027344 25.488281 59.976562 25.558594 C 59.921875 25.609375 59.902344 25.714844 59.902344 25.851562 C 59.902344 26.023438 59.914062 26.148438 59.933594 26.242188 C 59.964844 26.316406 60.027344 26.410156 60.152344 26.507812 C 60.277344 26.613281 60.527344 26.75 60.902344 26.949219 C 61.414062 27.191406 61.738281 27.421875 61.894531 27.65625 C 62.050781 27.875 62.132812 28.191406 62.132812 28.613281 C 62.132812 29.085938 62.070312 29.433594 61.957031 29.675781 C 61.832031 29.917969 61.632812 30.109375 61.351562 30.234375 C 61.070312 30.363281 60.726562 30.425781 60.320312 30.425781 C 59.882812 30.425781 59.507812 30.351562 59.183594 30.226562 C 58.871094 30.078125 58.652344 29.886719 58.535156 29.644531 C 58.421875 29.414062 58.359375 29.054688 58.359375 28.570312 L 58.359375 28.296875 L 59.914062 28.296875 L 59.914062 28.65625 C 59.914062 28.972656 59.921875 29.171875 59.976562 29.253906 C 60.007812 29.351562 60.089844 29.402344 60.203125 29.402344 C 60.320312 29.402344 60.402344 29.359375 60.453125 29.296875 C 60.496094 29.234375 60.527344 29.117188 60.527344 28.910156 C 60.527344 28.632812 60.496094 28.464844 60.433594 28.390625 C 60.371094 28.316406 60.027344 28.117188 59.421875 27.78125 C 58.914062 27.484375 58.601562 27.222656 58.484375 26.980469 C 58.371094 26.75 58.320312 26.464844 58.320312 26.136719 C 58.320312 25.675781 58.382812 25.335938 58.496094 25.117188 C 58.621094 24.894531 58.820312 24.726562 59.109375 24.609375 C 59.402344 24.496094 59.734375 24.429688 60.121094 24.429688 C 60.496094 24.429688 60.820312 24.472656 61.082031 24.566406 C 61.351562 24.671875 61.558594 24.800781 61.707031 24.96875 C 61.839844 25.125 61.925781 25.261719 61.957031 25.398438 C 61.988281 25.546875 61.996094 25.757812 61.996094 26.042969 Z M 36.253906 34.355469 L 34.429688 34.355469 L 34.429688 33.710938 C 34.429688 33.3125 34.417969 33.058594 34.375 32.953125 C 34.34375 32.847656 34.261719 32.796875 34.136719 32.796875 C 34.03125 32.796875 33.960938 32.847656 33.917969 32.929688 C 33.875 33.015625 33.855469 33.238281 33.855469 33.605469 L 33.855469 36.988281 C 33.855469 37.304688 33.875 37.515625 33.917969 37.609375 C 33.960938 37.703125 34.03125 37.757812 34.148438 37.757812 C 34.28125 37.757812 34.367188 37.703125 34.417969 37.589844 C 34.460938 37.472656 34.480469 37.261719 34.480469 36.933594 L 34.480469 36.09375 L 34.136719 36.09375 L 34.136719 35.015625 L 36.253906 35.015625 L 36.253906 38.808594 L 35.117188 38.808594 L 34.941406 38.292969 C 34.835938 38.5 34.675781 38.667969 34.480469 38.789062 C 34.28125 38.90625 34.0625 38.957031 33.804688 38.957031 C 33.5 38.957031 33.21875 38.882812 32.960938 38.734375 C 32.6875 38.578125 32.488281 38.398438 32.34375 38.179688 C 32.21875 37.957031 32.125 37.726562 32.09375 37.484375 C 32.050781 37.230469 32.042969 36.882812 32.042969 36.386719 L 32.042969 34.292969 C 32.042969 33.617188 32.074219 33.132812 32.144531 32.828125 C 32.21875 32.519531 32.425781 32.238281 32.761719 31.984375 C 33.105469 31.730469 33.554688 31.605469 34.085938 31.605469 C 34.617188 31.605469 35.066406 31.710938 35.410156 31.929688 C 35.753906 32.152344 35.980469 32.414062 36.097656 32.71875 C 36.203125 33.027344 36.253906 33.46875 36.253906 34.046875 Z M 38.785156 33.027344 L 38.722656 33.785156 C 38.984375 33.238281 39.335938 32.953125 39.828125 32.910156 L 39.828125 34.953125 C 39.515625 34.953125 39.273438 34.996094 39.117188 35.082031 C 38.972656 35.164062 38.878906 35.292969 38.847656 35.4375 C 38.816406 35.597656 38.796875 35.957031 38.796875 36.523438 L 38.796875 38.808594 L 37.054688 38.808594 L 37.054688 33.027344 Z M 41.921875 35.257812 L 40.285156 35.257812 L 40.285156 34.871094 C 40.285156 34.429688 40.335938 34.082031 40.433594 33.835938 C 40.546875 33.59375 40.746094 33.375 41.058594 33.195312 C 41.359375 33.003906 41.765625 32.910156 42.257812 32.910156 C 42.851562 32.910156 43.289062 33.027344 43.589844 33.226562 C 43.890625 33.4375 44.070312 33.699219 44.132812 34.007812 C 44.195312 34.3125 44.214844 34.945312 44.214844 35.902344 L 44.214844 38.808594 L 42.515625 38.808594 L 42.515625 38.285156 C 42.414062 38.492188 42.277344 38.652344 42.109375 38.757812 C 41.933594 38.863281 41.746094 38.914062 41.503906 38.914062 C 41.203125 38.914062 40.921875 38.820312 40.660156 38.652344 C 40.410156 38.484375 40.285156 38.105469 40.285156 37.523438 L 40.285156 37.039062 C 40.285156 36.609375 40.359375 36.3125 40.496094 36.15625 C 40.621094 36.007812 40.953125 35.816406 41.496094 35.605469 C 42.066406 35.375 42.382812 35.226562 42.414062 35.144531 C 42.453125 35.070312 42.476562 34.910156 42.476562 34.671875 C 42.476562 34.363281 42.453125 34.175781 42.402344 34.078125 C 42.359375 33.984375 42.289062 33.941406 42.183594 33.941406 C 42.070312 33.941406 41.996094 33.976562 41.964844 34.058594 C 41.933594 34.132812 41.921875 34.332031 41.921875 34.660156 Z M 42.472656 36.0625 C 42.191406 36.261719 42.035156 36.429688 41.996094 36.578125 C 41.941406 36.714844 41.921875 36.914062 41.921875 37.167969 C 41.921875 37.472656 41.933594 37.671875 41.984375 37.757812 C 42.015625 37.839844 42.101562 37.882812 42.214844 37.882812 C 42.320312 37.882812 42.402344 37.851562 42.421875 37.789062 C 42.453125 37.714844 42.472656 37.535156 42.472656 37.242188 Z M 46.707031 31.742188 L 46.707031 33.425781 C 46.851562 33.257812 47.019531 33.121094 47.195312 33.039062 C 47.375 32.964844 47.550781 32.910156 47.769531 32.910156 C 48.007812 32.910156 48.21875 32.953125 48.386719 33.027344 C 48.5625 33.101562 48.695312 33.207031 48.792969 33.34375 C 48.875 33.492188 48.9375 33.617188 48.957031 33.742188 C 48.980469 33.878906 48.988281 34.15625 48.988281 34.585938 L 48.988281 37.1875 C 48.988281 37.621094 48.957031 37.9375 48.894531 38.148438 C 48.84375 38.347656 48.707031 38.527344 48.507812 38.683594 C 48.289062 38.832031 48.050781 38.917969 47.769531 38.917969 C 47.5625 38.917969 47.375 38.863281 47.195312 38.777344 C 47.019531 38.695312 46.851562 38.546875 46.707031 38.367188 L 46.59375 38.8125 L 44.964844 38.8125 L 44.964844 31.742188 Z M 47.25 34.660156 C 47.25 34.363281 47.226562 34.175781 47.195312 34.082031 C 47.144531 33.984375 47.082031 33.941406 46.96875 33.941406 C 46.851562 33.941406 46.789062 33.976562 46.75 34.058594 C 46.726562 34.132812 46.707031 34.34375 46.707031 34.660156 L 46.707031 37.15625 C 46.707031 37.460938 46.726562 37.671875 46.757812 37.757812 C 46.789062 37.839844 46.875 37.882812 46.976562 37.882812 C 47.082031 37.882812 47.15625 37.839844 47.195312 37.757812 C 47.226562 37.660156 47.246094 37.449219 47.246094 37.101562 L 47.246094 34.660156 Z M 51.449219 31.742188 L 51.449219 33.425781 C 51.59375 33.257812 51.761719 33.121094 51.9375 33.039062 C 52.117188 32.953125 52.3125 32.910156 52.511719 32.910156 C 52.742188 32.910156 52.960938 32.953125 53.125 33.027344 C 53.304688 33.101562 53.441406 33.207031 53.53125 33.34375 C 53.617188 33.492188 53.679688 33.617188 53.699219 33.742188 C 53.71875 33.878906 53.730469 34.15625 53.730469 34.585938 L 53.730469 37.1875 C 53.730469 37.621094 53.699219 37.9375 53.636719 38.148438 C 53.585938 38.347656 53.449219 38.527344 53.25 38.683594 C 53.035156 38.832031 52.792969 38.917969 52.511719 38.917969 C 52.3125 38.914062 52.117188 38.867188 51.9375 38.777344 C 51.761719 38.695312 51.59375 38.546875 51.449219 38.367188 L 51.335938 38.8125 L 49.707031 38.8125 L 49.707031 31.742188 Z M 51.992188 34.660156 C 51.992188 34.363281 51.96875 34.175781 51.9375 34.082031 C 51.886719 33.984375 51.824219 33.941406 51.710938 33.941406 C 51.59375 33.941406 51.53125 33.976562 51.492188 34.058594 C 51.46875 34.132812 51.449219 34.34375 51.449219 34.660156 L 51.449219 37.15625 C 51.449219 37.460938 51.46875 37.671875 51.5 37.757812 C 51.53125 37.839844 51.617188 37.882812 51.71875 37.882812 C 51.824219 37.882812 51.898438 37.839844 51.9375 37.757812 C 51.96875 37.660156 51.992188 37.449219 51.992188 37.101562 Z M 58.402344 36.007812 L 56.140625 36.007812 L 56.140625 37.261719 C 56.140625 37.523438 56.160156 37.695312 56.191406 37.765625 C 56.234375 37.851562 56.304688 37.882812 56.410156 37.882812 C 56.546875 37.882812 56.628906 37.832031 56.679688 37.734375 C 56.722656 37.640625 56.742188 37.441406 56.742188 37.15625 L 56.742188 36.386719 L 58.402344 36.386719 L 58.402344 36.820312 C 58.402344 37.167969 58.371094 37.449219 58.328125 37.640625 C 58.285156 37.832031 58.183594 38.042969 58.015625 38.261719 C 57.851562 38.472656 57.636719 38.640625 57.390625 38.746094 C 57.140625 38.863281 56.828125 38.914062 56.441406 38.914062 C 56.078125 38.914062 55.753906 38.863281 55.472656 38.746094 C 55.191406 38.640625 54.972656 38.496094 54.816406 38.304688 C 54.660156 38.128906 54.542969 37.921875 54.480469 37.695312 C 54.417969 37.460938 54.398438 37.136719 54.398438 36.703125 L 54.398438 35.019531 C 54.398438 34.511719 54.472656 34.113281 54.597656 33.816406 C 54.730469 33.53125 54.949219 33.3125 55.265625 33.140625 C 55.578125 32.996094 55.921875 32.910156 56.328125 32.910156 C 56.816406 32.910156 57.222656 33.003906 57.546875 33.195312 C 57.859375 33.375 58.078125 33.628906 58.203125 33.941406 C 58.339844 34.25 58.402344 34.679688 58.402344 35.238281 Z M 56.660156 35.070312 L 56.660156 34.660156 C 56.660156 34.355469 56.640625 34.152344 56.617188 34.082031 C 56.585938 33.996094 56.5 33.9375 56.410156 33.941406 C 56.285156 33.941406 56.210938 33.976562 56.179688 34.046875 C 56.160156 34.132812 56.140625 34.324219 56.140625 34.660156 L 56.140625 35.070312 Z M 60.839844 33.027344 L 60.777344 33.785156 C 61.039062 33.238281 61.402344 32.953125 61.882812 32.910156 L 61.882812 34.953125 C 61.570312 34.953125 61.328125 34.996094 61.183594 35.082031 C 61.027344 35.164062 60.945312 35.292969 60.902344 35.4375 C 60.871094 35.597656 60.851562 35.957031 60.851562 36.523438 L 60.851562 38.808594 L 59.109375 38.808594 L 59.109375 33.027344 Z M 60.839844 33.027344 "/>
<path style=" stroke:none;fill-rule:evenodd;fill:rgb(80%,13.333333%,16.078431%);fill-opacity:1;" d="M 34.992188 23.113281 L 36.035156 30.171875 L 34.167969 30.171875 L 34.074219 28.90625 L 33.417969 28.90625 L 33.324219 30.171875 L 31.4375 30.171875 L 32.355469 23.113281 Z M 34.03125 27.652344 C 33.9375 26.851562 33.855469 25.863281 33.75 24.683594 C 33.574219 26.042969 33.460938 27.03125 33.40625 27.652344 Z M 40.402344 23.113281 L 40.402344 30.171875 L 38.660156 30.171875 L 38.660156 29.75 C 38.511719 29.910156 38.332031 30.046875 38.140625 30.152344 C 37.957031 30.234375 37.757812 30.277344 37.554688 30.277344 C 37.285156 30.277344 37.042969 30.203125 36.859375 30.066406 C 36.648438 29.917969 36.523438 29.75 36.472656 29.558594 C 36.410156 29.382812 36.386719 29.066406 36.386719 28.632812 L 36.386719 25.9375 C 36.386719 25.484375 36.410156 25.179688 36.472656 24.988281 C 36.523438 24.796875 36.660156 24.640625 36.859375 24.492188 C 37.054688 24.355469 37.292969 24.28125 37.574219 24.28125 C 37.796875 24.28125 37.992188 24.3125 38.171875 24.398438 C 38.359375 24.484375 38.515625 24.597656 38.660156 24.757812 L 38.660156 23.113281 Z M 38.660156 25.84375 C 38.660156 25.632812 38.648438 25.484375 38.609375 25.421875 C 38.578125 25.347656 38.492188 25.304688 38.390625 25.304688 C 38.285156 25.304688 38.210938 25.347656 38.179688 25.410156 C 38.140625 25.472656 38.128906 25.621094 38.128906 25.839844 L 38.128906 28.6875 C 38.128906 28.917969 38.140625 29.066406 38.179688 29.148438 C 38.210938 29.214844 38.285156 29.253906 38.378906 29.253906 C 38.492188 29.253906 38.566406 29.210938 38.609375 29.128906 C 38.648438 29.042969 38.660156 28.84375 38.660156 28.515625 Z M 45.144531 23.113281 L 45.144531 30.171875 L 43.402344 30.171875 L 43.402344 29.75 C 43.253906 29.910156 43.078125 30.046875 42.882812 30.152344 C 42.699219 30.234375 42.5 30.277344 42.296875 30.277344 C 42.027344 30.277344 41.785156 30.203125 41.597656 30.066406 C 41.390625 29.917969 41.265625 29.75 41.214844 29.558594 C 41.152344 29.382812 41.128906 29.066406 41.128906 28.632812 L 41.128906 25.9375 C 41.128906 25.484375 41.152344 25.179688 41.214844 24.988281 C 41.265625 24.796875 41.402344 24.640625 41.597656 24.492188 C 41.796875 24.355469 42.039062 24.28125 42.320312 24.28125 C 42.539062 24.28125 42.734375 24.3125 42.914062 24.398438 C 43.101562 24.484375 43.257812 24.597656 43.402344 24.757812 L 43.402344 23.113281 Z M 43.402344 25.84375 C 43.402344 25.632812 43.390625 25.484375 43.351562 25.421875 C 43.320312 25.347656 43.234375 25.304688 43.132812 25.304688 C 43.027344 25.304688 42.953125 25.347656 42.921875 25.410156 C 42.882812 25.472656 42.871094 25.621094 42.871094 25.839844 L 42.871094 28.6875 C 42.871094 28.917969 42.882812 29.066406 42.921875 29.148438 C 42.953125 29.214844 43.027344 29.253906 43.121094 29.253906 C 43.234375 29.253906 43.308594 29.210938 43.351562 29.128906 C 43.390625 29.042969 43.402344 28.84375 43.402344 28.515625 Z M 47.65625 24.386719 L 47.59375 25.148438 C 47.851562 24.597656 48.207031 24.316406 48.695312 24.28125 L 48.695312 26.316406 C 48.375 26.316406 48.132812 26.359375 47.988281 26.453125 C 47.847656 26.523438 47.746094 26.65625 47.71875 26.8125 C 47.675781 26.96875 47.664062 27.328125 47.664062 27.886719 L 47.664062 30.171875 L 45.925781 30.171875 L 45.925781 24.386719 Z M 53.179688 27.378906 L 50.917969 27.378906 L 50.917969 28.632812 C 50.917969 28.898438 50.9375 29.066406 50.96875 29.140625 C 51.019531 29.214844 51.082031 29.253906 51.199219 29.253906 C 51.324219 29.253906 51.417969 29.203125 51.460938 29.097656 C 51.5 29.003906 51.53125 28.800781 51.53125 28.519531 L 51.53125 27.75 L 53.179688 27.75 L 53.179688 28.179688 C 53.179688 28.539062 53.15625 28.8125 53.105469 29.011719 C 53.0625 29.203125 52.972656 29.402344 52.804688 29.625 C 52.636719 29.84375 52.429688 30.003906 52.179688 30.121094 C 51.929688 30.222656 51.605469 30.277344 51.230469 30.277344 C 50.855469 30.277344 50.542969 30.226562 50.261719 30.121094 C 49.980469 30.015625 49.761719 29.855469 49.59375 29.675781 C 49.4375 29.488281 49.332031 29.277344 49.269531 29.054688 C 49.207031 28.835938 49.175781 28.507812 49.175781 28.074219 L 49.175781 26.390625 C 49.175781 25.882812 49.25 25.472656 49.386719 25.179688 C 49.519531 24.894531 49.738281 24.671875 50.042969 24.515625 C 50.375 24.359375 50.738281 24.28125 51.105469 24.285156 C 51.605469 24.285156 52.011719 24.367188 52.324219 24.558594 C 52.648438 24.746094 52.867188 25 52.992188 25.304688 C 53.117188 25.621094 53.179688 26.054688 53.179688 26.613281 Z M 51.4375 26.441406 L 51.4375 26.019531 C 51.4375 25.714844 51.429688 25.527344 51.398438 25.441406 C 51.367188 25.359375 51.289062 25.304688 51.199219 25.304688 C 51.074219 25.304688 50.992188 25.347656 50.96875 25.421875 C 50.9375 25.496094 50.917969 25.695312 50.917969 26.019531 L 50.917969 26.441406 Z M 57.453125 26.230469 L 55.921875 26.230469 L 55.921875 25.925781 C 55.921875 25.652344 55.898438 25.484375 55.878906 25.421875 C 55.835938 25.347656 55.765625 25.304688 55.648438 25.304688 C 55.542969 25.304688 55.484375 25.347656 55.417969 25.410156 C 55.378906 25.472656 55.355469 25.566406 55.355469 25.707031 C 55.355469 25.882812 55.355469 26 55.386719 26.09375 C 55.417969 26.179688 55.484375 26.265625 55.605469 26.359375 C 55.730469 26.464844 55.980469 26.601562 56.359375 26.800781 C 56.867188 27.054688 57.191406 27.285156 57.347656 27.507812 C 57.503906 27.726562 57.585938 28.042969 57.585938 28.464844 C 57.585938 28.9375 57.523438 29.289062 57.410156 29.53125 C 57.285156 29.773438 57.089844 29.960938 56.804688 30.085938 C 56.515625 30.214844 56.171875 30.277344 55.773438 30.277344 C 55.335938 30.277344 54.960938 30.203125 54.636719 30.078125 C 54.324219 29.929688 54.105469 29.738281 53.992188 29.507812 C 53.878906 29.277344 53.816406 28.90625 53.816406 28.421875 L 53.816406 28.148438 L 55.359375 28.148438 L 55.359375 28.519531 C 55.359375 28.824219 55.378906 29.023438 55.417969 29.109375 C 55.460938 29.214844 55.535156 29.253906 55.648438 29.253906 C 55.773438 29.253906 55.859375 29.214844 55.910156 29.160156 C 55.953125 29.097656 55.984375 28.972656 55.984375 28.761719 C 55.984375 28.488281 55.941406 28.316406 55.878906 28.246094 C 55.828125 28.171875 55.484375 27.96875 54.878906 27.632812 C 54.367188 27.339844 54.054688 27.074219 53.941406 26.832031 C 53.824219 26.601562 53.773438 26.316406 53.773438 26 C 53.773438 25.535156 53.835938 25.1875 53.949219 24.96875 C 54.074219 24.746094 54.273438 24.578125 54.566406 24.460938 C 54.855469 24.347656 55.191406 24.28125 55.578125 24.28125 C 55.953125 24.28125 56.273438 24.324219 56.535156 24.417969 C 56.804688 24.523438 57.015625 24.660156 57.148438 24.820312 C 57.296875 24.976562 57.378906 25.125 57.410156 25.25 C 57.441406 25.398438 57.453125 25.609375 57.453125 25.894531 Z M 61.765625 26.230469 L 60.226562 26.230469 L 60.226562 25.925781 C 60.226562 25.652344 60.214844 25.484375 60.183594 25.421875 C 60.152344 25.347656 60.078125 25.304688 59.953125 25.304688 C 59.867188 25.304688 59.789062 25.34375 59.734375 25.410156 C 59.695312 25.472656 59.664062 25.566406 59.664062 25.707031 C 59.664062 25.882812 59.671875 26 59.695312 26.09375 C 59.726562 26.179688 59.796875 26.265625 59.921875 26.359375 C 60.046875 26.464844 60.289062 26.601562 60.671875 26.800781 C 61.171875 27.054688 61.496094 27.285156 61.664062 27.507812 C 61.820312 27.726562 61.894531 28.042969 61.894531 28.464844 C 61.894531 28.9375 61.839844 29.289062 61.714844 29.53125 C 61.601562 29.773438 61.394531 29.960938 61.113281 30.085938 C 60.832031 30.214844 60.488281 30.277344 60.089844 30.277344 C 59.640625 30.277344 59.265625 30.203125 58.945312 30.078125 C 58.640625 29.929688 58.421875 29.738281 58.308594 29.507812 C 58.191406 29.277344 58.132812 28.90625 58.132812 28.421875 L 58.132812 28.148438 L 59.671875 28.148438 L 59.671875 28.519531 C 59.671875 28.824219 59.695312 29.023438 59.734375 29.109375 C 59.769531 29.214844 59.851562 29.253906 59.964844 29.253906 C 60.089844 29.253906 60.164062 29.214844 60.214844 29.160156 C 60.265625 29.097656 60.289062 28.972656 60.289062 28.761719 C 60.289062 28.488281 60.257812 28.316406 60.195312 28.246094 C 60.132812 28.171875 59.796875 27.96875 59.183594 27.632812 C 58.671875 27.339844 58.371094 27.074219 58.257812 26.832031 C 58.140625 26.601562 58.078125 26.316406 58.078125 26 C 58.078125 25.535156 58.140625 25.1875 58.257812 24.96875 C 58.382812 24.746094 58.589844 24.578125 58.882812 24.460938 C 59.171875 24.347656 59.507812 24.28125 59.882812 24.28125 C 60.269531 24.28125 60.582031 24.324219 60.851562 24.417969 C 61.113281 24.523438 61.320312 24.660156 61.464844 24.820312 C 61.601562 24.976562 61.683594 25.125 61.714844 25.25 C 61.75 25.398438 61.769531 25.609375 61.769531 25.894531 L 61.769531 26.230469 Z M 61.765625 26.230469 "/>
<path style=" stroke:none;fill-rule:evenodd;fill:rgb(0%,58.039216%,83.921569%);fill-opacity:1;" d="M 36.011719 34.207031 L 34.199219 34.207031 L 34.199219 33.5625 C 34.199219 33.164062 34.179688 32.910156 34.148438 32.804688 C 34.105469 32.710938 34.03125 32.648438 33.90625 32.648438 C 33.804688 32.648438 33.71875 32.699219 33.6875 32.785156 C 33.636719 32.867188 33.625 33.089844 33.625 33.457031 L 33.625 36.839844 C 33.625 37.15625 33.636719 37.367188 33.6875 37.460938 C 33.71875 37.554688 33.804688 37.621094 33.917969 37.621094 C 34.042969 37.621094 34.136719 37.554688 34.179688 37.441406 C 34.21875 37.324219 34.25 37.113281 34.25 36.785156 L 34.25 35.945312 L 33.898438 35.945312 L 33.898438 34.871094 L 36.011719 34.871094 L 36.011719 38.664062 L 34.875 38.664062 L 34.710938 38.144531 C 34.585938 38.378906 34.429688 38.535156 34.242188 38.640625 C 34.042969 38.757812 33.824219 38.808594 33.574219 38.808594 C 33.273438 38.808594 32.980469 38.734375 32.71875 38.589844 C 32.457031 38.429688 32.25 38.25 32.113281 38.03125 C 31.980469 37.808594 31.894531 37.578125 31.855469 37.335938 C 31.824219 37.09375 31.800781 36.734375 31.800781 36.238281 L 31.800781 34.144531 C 31.800781 33.46875 31.832031 32.984375 31.90625 32.679688 C 31.980469 32.375 32.1875 32.089844 32.53125 31.835938 C 32.875 31.582031 33.3125 31.457031 33.855469 31.457031 C 34.375 31.457031 34.824219 31.5625 35.167969 31.785156 C 35.523438 32.003906 35.75 32.269531 35.855469 32.574219 C 35.960938 32.878906 36.011719 33.320312 36.011719 33.902344 Z M 38.546875 32.878906 L 38.484375 33.636719 C 38.742188 33.089844 39.109375 32.804688 39.585938 32.761719 L 39.585938 34.808594 C 39.273438 34.808594 39.035156 34.847656 38.890625 34.933594 C 38.734375 35.019531 38.648438 35.144531 38.609375 35.292969 C 38.578125 35.449219 38.554688 35.808594 38.554688 36.375 L 38.554688 38.664062 L 36.816406 38.664062 L 36.816406 32.878906 Z M 41.683594 35.113281 L 40.046875 35.113281 L 40.046875 34.722656 C 40.046875 34.28125 40.097656 33.933594 40.203125 33.691406 C 40.308594 33.449219 40.503906 33.238281 40.816406 33.046875 C 41.128906 32.859375 41.527344 32.761719 42.015625 32.761719 C 42.609375 32.761719 43.046875 32.878906 43.351562 33.078125 C 43.652344 33.289062 43.828125 33.554688 43.890625 33.859375 C 43.953125 34.164062 43.976562 34.796875 43.976562 35.753906 L 43.976562 38.664062 L 42.285156 38.664062 L 42.285156 38.148438 C 42.191406 38.335938 42.046875 38.496094 41.871094 38.609375 C 41.703125 38.714844 41.503906 38.769531 41.265625 38.769531 C 40.96875 38.765625 40.675781 38.671875 40.429688 38.503906 C 40.171875 38.335938 40.046875 37.957031 40.046875 37.378906 L 40.046875 36.894531 C 40.046875 36.460938 40.117188 36.167969 40.253906 36.007812 C 40.390625 35.859375 40.722656 35.671875 41.253906 35.460938 C 41.839844 35.226562 42.140625 35.082031 42.183594 34.996094 C 42.222656 34.933594 42.246094 34.765625 42.246094 34.523438 C 42.246094 34.226562 42.214844 34.027344 42.171875 33.933594 C 42.128906 33.839844 42.058594 33.796875 41.953125 33.796875 C 41.839844 33.796875 41.753906 33.828125 41.722656 33.914062 C 41.703125 33.996094 41.683594 34.1875 41.683594 34.511719 Z M 42.246094 35.914062 C 41.953125 36.113281 41.796875 36.28125 41.753906 36.429688 C 41.714844 36.566406 41.683594 36.765625 41.683594 37.03125 C 41.683594 37.324219 41.703125 37.523438 41.746094 37.609375 C 41.777344 37.695312 41.859375 37.734375 41.976562 37.734375 C 42.078125 37.734375 42.164062 37.703125 42.183594 37.640625 C 42.226562 37.566406 42.246094 37.386719 42.246094 37.09375 Z M 46.46875 31.59375 L 46.46875 33.28125 C 46.613281 33.109375 46.78125 32.972656 46.957031 32.890625 C 47.132812 32.816406 47.320312 32.761719 47.53125 32.761719 C 47.769531 32.761719 47.976562 32.804688 48.144531 32.878906 C 48.320312 32.953125 48.46875 33.058594 48.550781 33.195312 C 48.644531 33.34375 48.707031 33.46875 48.71875 33.597656 C 48.738281 33.734375 48.75 34.007812 48.75 34.4375 L 48.75 37.039062 C 48.75 37.472656 48.71875 37.789062 48.65625 38 C 48.605469 38.199219 48.480469 38.378906 48.269531 38.539062 C 48.054688 38.691406 47.792969 38.769531 47.53125 38.769531 C 47.332031 38.769531 47.132812 38.722656 46.957031 38.632812 C 46.78125 38.546875 46.613281 38.398438 46.46875 38.222656 L 46.351562 38.664062 L 44.726562 38.664062 L 44.726562 31.59375 Z M 47.007812 34.523438 C 47.007812 34.226562 46.988281 34.027344 46.957031 33.933594 C 46.914062 33.839844 46.839844 33.796875 46.726562 33.796875 C 46.621094 33.796875 46.550781 33.828125 46.519531 33.910156 C 46.488281 33.996094 46.46875 34.195312 46.46875 34.523438 L 46.46875 37.007812 C 46.46875 37.324219 46.488281 37.523438 46.519531 37.609375 C 46.558594 37.695312 46.632812 37.734375 46.75 37.734375 C 46.851562 37.734375 46.925781 37.695312 46.957031 37.609375 C 46.988281 37.515625 47.007812 37.304688 47.007812 36.957031 Z M 51.207031 31.59375 L 51.207031 33.28125 C 51.355469 33.109375 51.523438 32.972656 51.699219 32.890625 C 51.875 32.816406 52.0625 32.761719 52.273438 32.761719 C 52.511719 32.761719 52.71875 32.804688 52.886719 32.878906 C 53.0625 32.953125 53.210938 33.058594 53.292969 33.195312 C 53.386719 33.34375 53.449219 33.46875 53.460938 33.597656 C 53.480469 33.734375 53.492188 34.007812 53.492188 34.4375 L 53.492188 37.039062 C 53.492188 37.472656 53.460938 37.789062 53.398438 38 C 53.34375 38.199219 53.21875 38.378906 53.011719 38.539062 C 52.796875 38.691406 52.535156 38.769531 52.273438 38.769531 C 52.074219 38.773438 51.875 38.726562 51.699219 38.632812 C 51.523438 38.546875 51.355469 38.398438 51.207031 38.222656 L 51.09375 38.664062 L 49.46875 38.664062 L 49.46875 31.59375 Z M 51.75 34.523438 C 51.75 34.226562 51.730469 34.027344 51.699219 33.933594 C 51.65625 33.839844 51.585938 33.796875 51.46875 33.796875 C 51.363281 33.796875 51.292969 33.828125 51.261719 33.910156 C 51.230469 33.996094 51.210938 34.195312 51.210938 34.523438 L 51.210938 37.007812 C 51.210938 37.324219 51.230469 37.523438 51.261719 37.609375 C 51.304688 37.695312 51.375 37.734375 51.492188 37.734375 C 51.59375 37.734375 51.667969 37.695312 51.699219 37.609375 C 51.730469 37.515625 51.75 37.304688 51.75 36.957031 Z M 58.160156 35.859375 L 55.898438 35.859375 L 55.898438 37.113281 C 55.898438 37.378906 55.921875 37.554688 55.953125 37.621094 C 55.992188 37.703125 56.066406 37.734375 56.171875 37.734375 C 56.304688 37.734375 56.398438 37.683594 56.441406 37.589844 C 56.484375 37.492188 56.515625 37.292969 56.515625 37.007812 L 56.515625 36.238281 L 58.160156 36.238281 L 58.160156 36.671875 C 58.160156 37.03125 58.140625 37.304688 58.089844 37.503906 C 58.046875 37.683594 57.953125 37.894531 57.785156 38.113281 C 57.617188 38.328125 57.398438 38.5 57.152344 38.609375 C 56.910156 38.714844 56.585938 38.769531 56.210938 38.769531 C 55.835938 38.769531 55.523438 38.714844 55.242188 38.609375 C 54.960938 38.496094 54.730469 38.347656 54.574219 38.15625 C 54.417969 37.96875 54.316406 37.765625 54.253906 37.546875 C 54.191406 37.324219 54.160156 36.988281 54.160156 36.566406 L 54.160156 34.871094 C 54.160156 34.363281 54.230469 33.964844 54.367188 33.667969 C 54.492188 33.386719 54.722656 33.164062 55.023438 33.003906 C 55.335938 32.847656 55.691406 32.761719 56.085938 32.761719 C 56.578125 32.761719 56.984375 32.859375 57.304688 33.046875 C 57.621094 33.238281 57.847656 33.480469 57.964844 33.796875 C 58.097656 34.113281 58.160156 34.535156 58.160156 35.101562 Z M 56.421875 34.933594 L 56.421875 34.511719 C 56.421875 34.207031 56.398438 34.007812 56.378906 33.933594 C 56.347656 33.839844 56.273438 33.796875 56.171875 33.796875 C 56.054688 33.796875 55.972656 33.828125 55.941406 33.902344 C 55.921875 33.984375 55.898438 34.175781 55.898438 34.511719 L 55.898438 34.933594 Z M 60.609375 32.878906 L 60.546875 33.636719 C 60.796875 33.089844 61.164062 32.804688 61.652344 32.761719 L 61.652344 34.808594 C 61.328125 34.808594 61.089844 34.847656 60.945312 34.933594 C 60.796875 35.019531 60.703125 35.144531 60.671875 35.292969 C 60.628906 35.449219 60.621094 35.808594 60.621094 36.375 L 60.621094 38.664062 L 58.878906 38.664062 L 58.878906 32.878906 Z M 60.609375 32.878906 "/>
<path style=" stroke:none;fill-rule:evenodd;fill:rgb(80%,13.333333%,16.078431%);fill-opacity:1;" d="M 5.421875 31.152344 L 3.660156 31.152344 L 6.921875 35.375 L 10.007812 31.152344 L 8.527344 31.152344 L 8.527344 29.285156 C 8.527344 29.285156 8.359375 28.117188 9.308594 27.875 L 12.082031 27.824219 L 12.082031 24.765625 L 8.652344 24.765625 C 8.652344 24.765625 5.902344 24.902344 5.453125 27.824219 Z M 5.421875 31.152344 "/>
<path style=" stroke:none;fill-rule:evenodd;fill:rgb(0%,58.039216%,83.921569%);fill-opacity:1;" d="M 25.546875 33.921875 L 27.308594 33.921875 L 24.046875 29.699219 L 20.972656 33.921875 L 22.441406 33.921875 L 22.441406 35.785156 C 22.441406 35.785156 22.609375 36.957031 21.660156 37.199219 L 18.886719 37.25 L 18.886719 40.296875 L 22.316406 40.296875 C 22.316406 40.296875 25.078125 40.167969 25.515625 37.25 Z M 25.546875 33.921875 "/>
<path style="fill:none;stroke-width:1.302;stroke-linecap:butt;stroke-linejoin:miter;stroke:rgb(0%,0%,0%);stroke-opacity:1;stroke-miterlimit:2.613;" d="M 8.502578 105.564028 L 55.822786 105.564028 L 55.822786 124.214098 L 8.502578 124.214098 Z M 8.502578 105.564028 " transform="matrix(0.337214,0,0,0.337214,0,0)"/>
<path style="fill:none;stroke-width:1.736;stroke-linecap:butt;stroke-linejoin:miter;stroke:rgb(0%,0%,0%);stroke-opacity:1;stroke-miterlimit:2.613;" d="M 15.116982 110.464015 L 28.43846 110.464015 M 30.048622 110.278673 L 43.126838 110.278673 M 15.116982 113.336821 L 37.1843 113.336821 M 15.244405 119.522621 L 32.701333 119.522621 M 34.77485 119.314111 L 46.463 119.314111 M 15.174901 116.522392 L 37.253804 116.522392 " transform="matrix(0.337214,0,0,0.337214,0,0)"/>
<path style="fill:none;stroke-width:1.302;stroke-linecap:butt;stroke-linejoin:miter;stroke:rgb(0%,0%,0%);stroke-opacity:1;stroke-miterlimit:2.613;" d="M 36.14175 69.04001 L 83.461958 69.04001 L 83.461958 87.690079 L 36.14175 87.690079 Z M 36.14175 69.04001 " transform="matrix(0.337214,0,0,0.337214,0,0)"/>
<path style="fill:none;stroke-width:1.736;stroke-linecap:butt;stroke-linejoin:miter;stroke:rgb(0%,0%,0%);stroke-opacity:1;stroke-miterlimit:2.613;" d="M 42.756154 73.974749 L 56.077632 73.974749 M 57.676209 73.754655 L 70.754426 73.754655 M 42.756154 76.824387 L 64.823472 76.824387 M 42.871993 83.010186 L 60.340505 83.010186 M 62.414022 82.790092 L 74.090587 82.790092 M 42.814073 80.009957 L 64.881392 80.009957 " transform="matrix(0.337214,0,0,0.337214,0,0)"/>
</g>
</svg>
