<?xml version="1.0" standalone="no"?>
<!DOCTYPE svg PUBLIC "-//W3C//DTD SVG 20010904//EN"
 "http://www.w3.org/TR/2001/REC-SVG-20010904/DTD/svg10.dtd">
<svg version="1.0" xmlns="http://www.w3.org/2000/svg"
 width="1200.000000pt" height="675.000000pt" viewBox="0 0 1200.000000 675.000000"
 preserveAspectRatio="xMidYMid meet">

<g transform="translate(0.000000,675.000000) scale(0.100000,-0.100000)"
fill="#000000" stroke="none">
<path d="M0 3375 l0 -3375 3254 0 c3218 0 3254 0 3249 19 -3 11 -22 39 -43 61
-37 40 -38 42 -12 34 15 -4 37 -7 49 -7 15 1 25 -9 35 -31 7 -17 12 -34 10
-38 -1 -5 2 -8 8 -8 5 0 10 -7 10 -15 0 -23 137 -21 163 2 18 17 19 17 32 0
12 -16 156 -17 2629 -17 l2616 0 0 3375 0 3375 -3850 0 c-2461 0 -3850 -3
-3850 -10 0 -5 8 -31 18 -57 14 -36 16 -61 11 -103 -4 -30 -8 -107 -8 -170 -1
-63 -6 -155 -11 -205 -5 -49 -10 -197 -10 -328 -1 -223 -2 -239 -20 -257 -27
-27 -44 -25 -75 7 -24 27 -25 31 -25 168 1 153 18 786 24 850 2 22 8 55 14 73
l11 32 -859 0 c-850 0 -859 0 -865 -20 -3 -11 -11 -20 -16 -20 -5 0 -9 -13 -9
-30 0 -16 -9 -44 -20 -62 -23 -38 -37 -117 -22 -127 5 -3 21 -27 35 -54 30
-56 25 -89 -21 -142 -29 -32 -30 -37 -36 -167 -7 -136 -9 -661 -4 -801 2 -52
-1 -80 -9 -85 -15 -10 -31 -234 -20 -293 8 -47 5 -122 -12 -234 -5 -38 -10
-138 -10 -221 -1 -150 -1 -152 -26 -168 -31 -20 -112 -21 -174 -2 -59 19 -173
44 -231 52 -25 3 -69 13 -98 21 -78 22 -82 34 -71 223 12 217 12 359 0 399
-13 43 2 293 29 476 12 82 23 246 30 445 7 173 16 325 21 338 5 13 11 69 14
125 8 184 16 312 21 330 5 16 -33 17 -704 17 l-710 0 -6 -107 c-11 -200 -13
-213 -32 -234 -17 -19 -18 -19 -42 3 -21 20 -23 29 -18 70 6 40 3 49 -16 65
-40 32 -60 80 -61 144 l0 59 -144 0 -143 0 0 -3375z m329 3023 c1 -31 -3 -59
-8 -63 -5 -3 -19 7 -31 22 -24 31 -22 68 7 107 16 21 19 22 25 8 4 -10 7 -43
7 -74z m-29 -840 c0 -5 -4 -8 -10 -8 -5 0 -10 10 -10 23 0 18 2 19 10 7 5 -8
10 -18 10 -22z m3976 -203 c22 -30 25 -40 16 -58 -37 -78 -61 -193 -72 -337
-5 -63 -12 -146 -17 -185 l-7 -70 -7 50 c-9 63 -11 562 -3 604 5 26 11 31 35
31 20 0 35 -10 55 -35z m-4005 -148 c-13 -13 -14 5 -3 43 l7 25 3 -29 c2 -16
-1 -33 -7 -39z m5089 8 c0 -8 -9 -15 -20 -15 -11 0 -20 7 -20 15 0 8 9 15 20
15 11 0 20 -7 20 -15z m-5090 -226 c0 -5 -7 -9 -15 -9 -8 0 -15 7 -15 15 0 9
6 12 15 9 8 -4 15 -10 15 -15z m5046 -24 c4 -8 12 -15 20 -15 8 0 14 -5 14
-12 0 -6 3 -8 6 -5 4 3 15 -5 26 -18 19 -25 58 -34 58 -15 0 6 -9 10 -20 10
-11 0 -20 5 -20 10 0 6 9 10 20 10 13 0 21 -8 25 -25 3 -14 7 -36 10 -50 5
-23 2 -25 -27 -25 -25 0 -29 -3 -18 -10 8 -5 11 -10 7 -10 -13 0 -51 22 -59
34 -6 8 -10 8 -16 -1 -5 -8 -23 -6 -67 9 -33 11 -61 21 -61 21 -1 1 -4 11 -8
22 -14 46 94 114 110 70z m-5048 -58 c2 -27 -2 -37 -12 -37 -8 0 -16 -5 -18
-12 -3 -9 -6 -9 -12 0 -4 7 -2 12 3 12 6 0 11 12 11 26 0 16 -4 23 -11 18 -7
-4 -7 1 1 15 16 31 34 21 38 -22z m4881 -193 c8 -8 -18 -21 -66 -36 -31 -9
-43 -18 -43 -31 0 -16 -6 -19 -36 -15 l-36 4 5 -45 c5 -54 27 -116 50 -138 11
-11 35 -15 82 -15 57 0 63 -2 43 -12 -28 -14 -36 -57 -14 -76 9 -7 16 -18 16
-25 0 -6 9 -22 19 -34 11 -13 21 -27 23 -32 4 -11 70 -28 109 -29 16 0 37 10
50 25 13 13 30 25 37 25 7 0 21 5 32 12 15 10 22 9 38 -5 10 -9 26 -17 35 -17
9 0 17 -5 17 -11 0 -6 7 -3 16 5 8 9 13 24 10 33 -4 14 6 23 42 40 26 12 57
30 69 39 l22 16 -2 -229 -3 -228 -32 -3 c-19 -2 -38 3 -48 12 -20 21 -67 20
-110 0 -38 -18 -42 -38 -18 -81 22 -40 6 -83 -29 -76 -16 3 -29 -1 -38 -14
-53 -73 -181 -70 -241 7 -12 17 -43 49 -67 73 -48 47 -106 151 -97 174 5 11 1
14 -13 10 -11 -3 -25 1 -31 8 -14 16 -40 118 -40 154 0 16 -6 44 -14 62 -10
26 -11 47 -4 89 5 30 13 80 17 110 4 30 9 47 10 38 0 -9 6 -20 13 -24 8 -5 9
2 5 24 -9 46 10 132 34 155 12 11 18 26 14 36 -4 15 4 19 52 28 55 10 110 9
122 -3z m-299 -113 c5 -20 10 -53 10 -73 0 -32 -5 -39 -40 -59 -37 -21 -52
-39 -31 -39 4 0 6 -22 3 -50 -3 -33 -1 -50 7 -50 6 0 11 -5 11 -12 0 -6 7 -20
17 -30 15 -17 15 -18 -8 -18 -45 0 -61 46 -55 151 3 51 1 99 -3 108 -5 9 -6
34 -2 56 5 33 11 40 29 39 15 0 22 5 22 19 0 31 28 2 40 -42z m832 -3 c6 -19
1 -158 -6 -165 -17 -17 -31 25 -35 97 -3 75 -2 80 17 80 11 0 22 -6 24 -12z
m-765 -30 c-3 -8 -6 -5 -6 6 -1 11 2 17 5 13 3 -3 4 -12 1 -19z m303 -56 c-12
-4 -50 17 -50 28 0 5 8 10 18 12 17 4 48 -34 32 -40z m890 28 c0 -5 3 -15 6
-24 4 -11 0 -16 -14 -16 -19 0 -37 34 -26 51 6 10 34 0 34 -11z m-1921 -347
c-1 -125 3 -196 17 -260 4 -20 0 -23 -26 -23 l-30 0 5 143 c6 135 22 277 31
277 3 0 4 -62 3 -137z m685 -97 c19 -65 19 -66 5 -66 -18 0 -38 32 -39 62 0
25 8 58 15 58 2 0 11 -24 19 -54z m586 -346 c0 -5 -4 -10 -10 -10 -5 0 -10 5
-10 10 0 6 5 10 10 10 6 0 10 -4 10 -10z m10 -89 c0 -12 -29 -23 -41 -15 -18
10 -9 24 16 24 14 0 25 -4 25 -9z m151 -421 c31 -17 22 -30 -21 -30 -42 0 -58
24 -22 33 9 3 18 5 20 6 2 0 12 -4 23 -9z m129 -1821 c0 -5 4 -7 10 -4 5 3 7
0 5 -7 -3 -8 -21 -15 -40 -16 -37 -3 -38 -2 -29 22 7 18 54 22 54 5z m-3 -115
c13 -13 7 -24 -14 -24 -20 0 -53 38 -53 62 0 24 -4 26 67 -38z m50 23 c-6 -20
-27 -19 -27 2 0 14 5 19 15 14 9 -3 14 -10 12 -16z m-138 -1052 c67 -34 51
-145 -20 -145 -63 0 -93 99 -43 139 32 25 28 25 63 6z"/>
<path d="M5481 4133 c-16 -57 -14 -63 20 -63 28 0 30 2 18 16 -10 12 -10 17 0
23 18 11 10 55 -11 59 -12 2 -20 -7 -27 -35z"/>
<path d="M5610 204 c0 -19 5 -24 24 -24 19 0 24 5 22 24 -2 34 -46 34 -46 0z"/>
<path d="M350 6739 c0 -5 5 -7 10 -4 6 3 10 8 10 11 0 2 -4 4 -10 4 -5 0 -10
-5 -10 -11z"/>
</g>
</svg>
