<?xml version="1.0" encoding="UTF-8"?>
<svg xmlns="http://www.w3.org/2000/svg" xmlns:xlink="http://www.w3.org/1999/xlink" width="100px" height="110px" viewBox="0 0 100 109" version="1.1">
<g id="surface1">
<path style=" stroke:none;fill-rule:nonzero;fill:rgb(0%,41.568627%,100%);fill-opacity:1;" d="M 67.613281 29.390625 C 68.117188 29.28125 68.339844 29.449219 68.644531 29.78125 C 70.375 31.691406 75.90625 38.394531 77.410156 40.222656 C 77.6875 40.554688 77.496094 40.917969 77.273438 41.109375 C 66.105469 49.75 53.683594 61.992188 46.757812 70.746094 C 46.621094 70.945312 46.734375 70.945312 46.84375 70.914062 C 58.90625 65.761719 87.234375 57.53125 99.996094 55.234375 L 99.996094 39.199219 L 50.058594 0 L 0.0351562 39.167969 L 0.0351562 56.699219 C 15.527344 47.5625 51.367188 33.40625 67.613281 29.390625 Z M 67.613281 29.390625 "/>
<path style=" stroke:none;fill-rule:nonzero;fill:rgb(0%,41.568627%,100%);fill-opacity:1;" d="M 26.96875 96.761719 C 26.554688 96.980469 26.214844 96.925781 25.878906 96.59375 L 16.554688 85.570312 C 16.308594 85.261719 16.277344 85.097656 16.613281 84.628906 C 23.816406 74.15625 38.527344 57.839844 47.90625 50.945312 C 48.074219 50.832031 48.019531 50.691406 47.820312 50.777344 C 38.050781 53.933594 10.277344 65.792969 0.00390625 71.554688 L 0.00390625 109 L 99.96875 109 L 99.96875 72.9375 C 86.347656 75.234375 45.535156 87.285156 26.96875 96.761719 Z M 26.96875 96.761719 "/>
</g>
</svg>
