<?xml version="1.0" encoding="UTF-8"?>
<svg xmlns="http://www.w3.org/2000/svg" xmlns:xlink="http://www.w3.org/1999/xlink" width="910px" height="1000px" viewBox="0 0 910 999" version="1.1">
<g id="surface1">
<path style=" stroke:none;fill-rule:nonzero;fill:rgb(0%,41.568627%,100%);fill-opacity:1;" d="M 615.289062 269.386719 C 619.859375 268.371094 621.894531 269.894531 624.667969 272.941406 C 640.417969 290.4375 690.753906 351.878906 704.429688 368.632812 C 706.972656 371.679688 705.210938 375 703.179688 376.757812 C 601.570312 455.96875 488.511719 568.183594 425.515625 648.410156 C 424.261719 650.207031 425.28125 650.207031 426.296875 649.933594 C 536.035156 602.710938 793.847656 527.289062 909.953125 506.238281 L 909.953125 359.261719 L 455.527344 0 L 0.320312 358.988281 L 0.320312 519.671875 C 141.28125 435.933594 467.445312 306.179688 615.289062 269.386719 Z M 615.289062 269.386719 "/>
<path style=" stroke:none;fill-rule:nonzero;fill:rgb(0%,41.568627%,100%);fill-opacity:1;" d="M 245.429688 886.824219 C 241.640625 888.855469 238.554688 888.347656 235.503906 885.300781 L 150.660156 784.257812 C 148.394531 781.445312 148.121094 779.921875 151.167969 775.625 C 216.746094 679.65625 350.597656 530.101562 435.949219 466.90625 C 437.472656 465.890625 436.964844 464.601562 435.167969 465.382812 C 346.257812 494.324219 93.527344 602.984375 0.046875 655.792969 L 0.046875 999 L 909.71875 999 L 909.71875 668.488281 C 785.757812 689.539062 414.375 799.996094 245.429688 886.824219 Z M 245.429688 886.824219 "/>
</g>
</svg>
