<?xml version="1.0" encoding="UTF-8"?>
<svg xmlns="http://www.w3.org/2000/svg" xmlns:xlink="http://www.w3.org/1999/xlink" width="150px" height="165px" viewBox="0 0 150 164" version="1.1">
<g id="surface1">
<path style=" stroke:none;fill-rule:nonzero;fill:rgb(0%,41.568627%,100%);fill-opacity:1;" d="M 101.421875 44.222656 C 102.175781 44.058594 102.511719 44.308594 102.96875 44.808594 C 105.5625 47.679688 113.859375 57.765625 116.113281 60.515625 C 116.535156 61.015625 116.242188 61.5625 115.910156 61.851562 C 99.160156 74.855469 80.523438 93.277344 70.140625 106.445312 C 69.933594 106.742188 70.101562 106.742188 70.269531 106.695312 C 88.355469 98.945312 130.855469 86.5625 149.992188 83.105469 L 149.992188 58.976562 L 75.085938 0 L 0.0507812 58.933594 L 0.0507812 85.3125 C 23.289062 71.5625 77.050781 50.265625 101.421875 44.222656 Z M 101.421875 44.222656 "/>
<path style=" stroke:none;fill-rule:nonzero;fill:rgb(0%,41.568627%,100%);fill-opacity:1;" d="M 40.457031 145.585938 C 39.832031 145.917969 39.320312 145.835938 38.820312 145.335938 L 24.835938 128.746094 C 24.460938 128.285156 24.414062 128.035156 24.917969 127.328125 C 35.726562 111.574219 57.789062 87.023438 71.859375 76.648438 C 72.109375 76.484375 72.027344 76.269531 71.730469 76.398438 C 57.074219 81.152344 15.417969 98.988281 0.0078125 107.65625 L 0.0078125 164 L 149.953125 164 L 149.953125 109.742188 C 129.519531 113.199219 68.304688 131.332031 40.457031 145.585938 Z M 40.457031 145.585938 "/>
</g>
</svg>
